PathFileType	4	(X/Y/Z)	../Python\walking\Walking16\task.trc
DataRate	CameraRate	NumFrames	NumMarkers	Units	OrigDataRate	OrigDataStartFrame	OrigNumFrames
200.000000	200.000000	5	30	mm	200.000000	75	452
Frame#	Time	C7			RBAK			CLAV			STRN			RASI			LASI			PE01			RTH1			RTH2			RTH3			RD5M			RTOE			LTH2			LTH3			LTB2			LTB3			LHEE			LTOE			LD5M			LTB1			RTB2			RHEE			RTB3			RTB1			LTH1			LPSI			PE03			PE02			RPSI			T10			
		X1	Y1	Z1	X2	Y2	Z2	X3	Y3	Z3	X4	Y4	Z4	X5	Y5	Z5	X6	Y6	Z6	X7	Y7	Z7	X8	Y8	Z8	X9	Y9	Z9	X10	Y10	Z10	X11	Y11	Z11	X12	Y12	Z12	X13	Y13	Z13	X14	Y14	Z14	X15	Y15	Z15	X16	Y16	Z16	X17	Y17	Z17	X18	Y18	Z18	X19	Y19	Z19	X20	Y20	Z20	X21	Y21	Z21	X22	Y22	Z22	X23	Y23	Z23	X24	Y24	Z24	X25	Y25	Z25	X26	Y26	Z26	X27	Y27	Z27	X28	Y28	Z28	X29	Y29	Z29	X30	Y30	Z30	

76	0.515	-820.0010375976567	1345.119995117188	165.5755157470704	-852.026733398438	1252.657470703125	286.128631591797	-706.4189453125002	1244.2041015625	146.8216857910157	-654.8876953125002	1058.338134765625	150.6378479003907	-683.0422973632815	869.3757324218755	299.4477844238282	-679.633728027344	864.7684936523442	72.52790832519534	-876.4096679687505	942.404418945313	192.6518402099611	-790.6496582031255	581.3386230468752	321.5122985839845	-790.072875976563	504.6846618652346	299.5538940429689	-751.9712524414065	553.7935180664065	302.736541748047	-829.8850708007817	15.94805145263673	269.9717102050782	-791.7400512695317	28.70801734924318	214.8015747070314	-658.798278808594	549.7942504882815	55.34968185424808	-607.4324340820315	607.9704589843752	41.4053192138672	-584.6104736328127	212.2193756103517	66.40059661865237	-551.0377197265627	248.9261016845704	63.58871078491214	-569.039978027344	30.05704498291017	126.0624237060547	-389.377624511719	74.28933715820315	95.85997009277347	-425.1763916015627	48.63424301147464	57.88380813598636	-597.2891235351565	289.9386596679689	55.21201324462893	-880.1738281250005	249.7058868408204	288.8638916015626	-980.1355590820317	31.86851119995119	204.6117401123048	-858.2022094726567	208.6206817626954	269.4396972656251	-830.384155273438	282.4528808593751	276.5841064453126	-657.7769165039065	608.5486450195315	38.7370071411133	-881.1474609375005	902.5319824218755	154.3901367187501	-891.8056030273442	881.3558959960942	168.7246093750001	-892.859985351563	883.605346679688	219.3428497314454	-879.5192260742192	910.9002075195317	242.2635345458986	-860.5045776367192	1047.392211914063	190.6953277587891	
77	0.52	-813.6564941406255	1343.584106445313	165.2978973388672	-845.4216308593755	1251.222778320313	286.1400756835939	-700.0129394531252	1242.607177734375	146.5364074707032	-648.322204589844	1056.789306640625	150.6545867919922	-676.541198730469	868.110717773438	299.7605895996095	-672.2049560546877	863.4071655273442	72.68744659423831	-869.5017089843755	940.7238769531255	191.6775665283204	-786.704711914063	580.8122558593752	321.739471435547	-786.7526245117192	504.1106262207034	299.8075561523439	-748.2153320312502	552.8887329101565	303.1726684570314	-829.9064331054692	15.91662693023682	270.0151367187501	-791.692016601563	28.67053985595705	214.8332824707032	-652.4919433593752	547.8032836914065	55.57239532470706	-600.8392333984377	605.515319824219	41.18703079223634	-570.3165283203127	210.7280426025392	66.64053344726565	-537.9885864257815	248.5388031005861	63.73842239379886	-548.5877075195315	29.26706886291505	125.9621047973633	-369.9461059570314	78.475700378418	95.79262542724612	-405.0758056640627	51.61264801025393	57.86756515502933	-585.6489257812502	287.9775695800782	55.62463760375979	-878.842163085938	249.8023376464845	289.0548095703126	-980.1401977539067	32.4512062072754	204.676727294922	-857.0991210937505	208.4993591308595	269.7045288085939	-828.7607421875005	282.1441650390626	276.9126892089845	-651.228942871094	606.497497558594	38.55135726928712	-874.1398315429692	900.6489257812505	153.6838378906251	-884.8355102539067	879.6098632812505	167.8374481201172	-886.223022460938	882.027709960938	218.4313354492189	-873.011596679688	909.3300781250005	241.3677825927736	-854.012084960938	1045.744750976563	190.383773803711	
78	0.525	-807.2973632812505	1342.009765625	164.9985046386719	-838.8132324218755	1249.740600585938	286.1220092773439	-693.5788574218752	1240.969970703125	146.2410125732422	-641.708190917969	1055.199340820313	150.6711730957032	-670.0242919921877	866.803344726563	300.081268310547	-664.7576293945315	861.993041992188	72.8500671386719	-862.5488891601567	939.0328979492192	190.6884307861329	-782.7207641601567	580.2716064453127	321.9711303710939	-783.3327636718755	503.5247192382815	300.0799865722657	-744.3956298828127	551.976989746094	303.6695861816407	-829.927124023438	15.87963008880616	270.0601806640626	-791.6473999023442	28.63194084167482	214.8746490478517	-646.2393798828127	545.750915527344	55.80261993408206	-594.3216552734377	602.9306640625002	40.7795867919922	-556.3215942382815	209.4325103759767	66.86873626708987	-525.223571777344	248.2590332031251	63.90285873413089	-528.7483520507815	28.7984027862549	125.8975906372071	-351.1631469726564	82.79260253906253	95.80706787109378	-385.6308288574221	54.75892639160159	57.92679595947268	-574.1807250976565	286.1613159179689	56.02020645141604	-877.420288085938	249.9086761474611	289.2469787597657	-980.1354980468755	33.1037940979004	204.7502288818361	-855.9251098632817	208.3838195800782	269.9751281738282	-827.042114257813	281.8230285644532	277.2480773925782	-644.7439575195315	604.3698730468752	38.29584121704103	-867.1004028320317	898.7549438476567	152.9671020507813	-877.8354492187505	877.8629760742192	166.9217834472657	-879.5705566406255	880.4435424804692	217.4888763427736	-866.482299804688	907.7498168945317	240.4477081298829	-847.483764648438	1044.060180664063	190.0598449707032	
79	0.53	-800.9216918945317	1340.404663085938	164.6763000488282	-832.1997680664067	1248.219604492188	286.0735168457032	-687.1150512695315	1239.300415039063	145.9340820312501	-635.0452880859377	1053.576538085938	150.6861267089844	-663.4895019531252	865.4591674804692	300.4093322753907	-657.2939453125002	860.5373535156255	73.01734161376956	-855.5508422851567	937.3408203125005	189.6930541992188	-778.687133789063	579.7191162109377	322.2052307128907	-779.8059082031255	502.9309082031252	300.3662414550782	-740.5046997070315	551.0625000000002	304.2151794433595	-829.947631835938	15.83724117279053	270.1070556640626	-791.606079101563	28.59199333190919	214.9249420166017	-640.0186767578127	543.6619262695315	56.04664993286136	-587.8706054687502	600.2564086914065	40.19664764404298	-542.647399902344	208.3194732666017	67.08015441894534	-512.7520751953127	248.0713043212892	64.08510589599612	-509.5923461914065	28.6011371612549	125.8686294555665	-333.0738220214845	87.16606140136722	95.92598724365237	-366.8902282714845	58.00824356079104	58.076774597168	-562.887878417969	284.4923400878907	56.39021682739261	-875.907836914063	250.0273284912111	289.4392395019532	-980.1185913085942	33.83057022094728	204.8314666748048	-854.6799926757817	208.277801513672	270.250701904297	-825.227416992188	281.4917297363282	277.5880432128907	-638.3085937500002	602.1907958984377	37.98370742797853	-860.029663085938	896.8613891601567	152.2450408935547	-870.8052368164067	876.1262817382817	165.9825744628907	-872.9008789062505	878.8605346679692	216.5205535888673	-859.928100585938	906.1674804687505	239.5099487304689	-840.9172973632817	1042.347290039063	189.7279510498047	
80	0.535	-794.5275878906255	1338.776000976563	164.3303527832032	-825.5793457031255	1246.668701171875	285.993865966797	-680.6201782226565	1237.606689453125	145.6143493652344	-628.3330078125002	1051.929321289063	150.6979370117188	-656.9343261718752	864.0839843750005	300.7440185546876	-649.8157958984377	859.0517578125005	73.19050598144534	-848.5073852539067	935.656860351563	188.7001190185547	-774.5934448242192	579.1570434570315	322.4398803710939	-776.1671752929692	502.3330993652346	300.6617736816407	-736.5359497070315	550.1492919921877	304.7967529296876	-829.9685668945317	15.7899923324585	270.1555480957032	-791.5676879882817	28.55047035217287	214.9833984375001	-633.8049926757815	541.5614013671877	56.30801773071292	-581.4724731445315	597.537780761719	39.46176910400392	-529.316345214844	207.3712615966798	67.27061462402347	-500.5837707519534	247.9569396972657	64.28880310058597	-491.187683105469	28.6201629638672	125.8751602172852	-315.7208557128907	91.51486968994143	96.17268371582037	-348.8997497558595	61.28924179077151	58.3330001831055	-551.7749023437502	282.9692382812501	56.72731399536136	-874.3052368164067	250.1609344482423	289.6304016113282	-980.0863647460942	34.63537597656251	204.9194335937501	-853.3642578125005	208.1851501464845	270.5305175781251	-823.3166503906255	281.1530151367189	277.9304809570314	-631.9058227539065	599.9863891601565	37.62988662719728	-852.9280395507817	894.9795532226567	151.5227966308594	-863.7446289062505	874.410522460938	165.0250549316407	-866.212036132813	877.2863159179692	215.5317687988282	-853.3456420898442	904.5910034179692	238.5613098144532	-834.310424804688	1040.614501953125	189.3925476074219	
